<svg id="Layer_1" data-name="Layer 1" xmlns="http://www.w3.org/2000/svg" viewBox="0 0 127.56 29.98">
    <defs>
        <style>.cls-1{fill:#3a3b7e;}</style>
    </defs>
    <title>ColdLogic_Logo_SVG</title>
    <polygon class="cls-1" points="32.74 22.99 37.62 0 44.93 0 39.8 22.99 32.74 22.99"/>
    <polygon class="cls-1" points="109.02 8.66 116.13 8.66 113 22.99 105.9 22.99 109.02 8.66"/>
    <path class="cls-1" d="M127.4,8.53l-1,4.83a3.64,3.64,0,0,0-3,1.13c-1,1.34-1,2.65-.18,3.46a2.81,2.81,0,0,0,2.06.69l-1,4.78s-5,.65-7.28-1.66a6.16,6.16,0,0,1-1.06-7.42C117.05,12,119.38,8.3,127.4,8.53Z"/>
    <path class="cls-1" d="M10.71,10c-1.26,2.78-1.78,5.61.77,7.27A3.71,3.71,0,0,0,16,17a9.13,9.13,0,0,1,6.88-8.58c4.84-1.13,7.46-.22,9.21,1,2.58,1.76,3.07,7-.14,10.26s-5.58,3.19-9.73,3.19A6.47,6.47,0,0,1,16.5,19.7L16,22.14c-4.11,1.73-11.83,1.05-13.46-4A12.45,12.45,0,0,1,8.29,3.8C13.61.61,20.35,2.14,20.35,2.14L19,8.24A5.36,5.36,0,0,0,10.71,10ZM26,12c-1.05-.06-2.22,1.16-2.67,3.11s-.74,3.7,1,4c1,.15,2.22-1.16,2.67-3.11S27.44,12.07,26,12Z"/>
    <ellipse class="cls-1" cx="113.31" cy="4.77" rx="4.28" ry="2.98" transform="translate(1.21 21.94) rotate(-11.12)"/>
    <rect class="cls-1" y="24.57" width="86.63" height="0.98"/>
    <polygon class="cls-1" points="127.56 25.55 105.15 25.55 105.49 24.57 127.56 24.57 127.56 25.55"/>
    <path class="cls-1" d="M100.74,8.62l-.34,2C98.82,8.44,97.26,7.75,94,8.91s-4.44,5.22-4.44,5.22S89.34,10.63,87,9.41s-5.84-1.86-10.62.13-4.94,7.72-4.94,7.72H66.05L69.9,0H55.58L53.36,10.42A3.4,3.4,0,0,0,50.94,8.2a7.24,7.24,0,0,0-6.12,1.41c-1.94,1.6-3.17,5.68-3.25,6.52s-.65,3.59,1,5.45,3.1,1.34,4.92,1.41,3.72-2,3.72-2l-.77,2H71.94l.42-2.14a8,8,0,0,0,3.78,2.28,12.55,12.55,0,0,0,8-.83,9.8,9.8,0,0,0,4.55-4.52,6.64,6.64,0,0,0,.94,3.84c.49.94,2.26,1.78,4.45,1.72a7,7,0,0,0,4-1.69,11,11,0,0,1-.67,3c-.54,1.25-1.31,1.13-2,1.16s-.83-1.23-.83-1.23H87.38a4.61,4.61,0,0,0,3.88,5,14.08,14.08,0,0,0,9.86-.84c3.42-1.64,4.38-7.78,4.38-7.78L108,8.62ZM52.48,16c-.39,1.68-1.44,2.8-2.38,2.66-1.61-.24-1.37-1.75-1-3.43s1.43-2.72,2.38-2.66C52.77,12.63,52.86,14.29,52.48,16ZM63,1a.45.45,0,0,1,.48-.4.45.45,0,0,1,.32.54.45.45,0,0,1-.48.4A.45.45,0,0,1,63,1Zm0,1.64a.45.45,0,0,1,.32.54.41.41,0,1,1-.8-.14A.45.45,0,0,1,63.06,2.64Zm-4,13.5a.69.69,0,1,1,.68-.57A.63.63,0,0,1,59,16.14Zm.2,1.53a.58.58,0,1,1-.45-.77A.63.63,0,0,1,59.23,17.67Zm.17-3.54a.69.69,0,1,1,.68-.57A.63.63,0,0,1,59.41,14.14Zm.37-2.1a.69.69,0,1,1,.68-.57A.63.63,0,0,1,59.77,12Zm1.11-5.45a.63.63,0,0,1,.45.77.58.58,0,1,1-1.14-.2A.63.63,0,0,1,60.88,6.58Zm-.24-1.44a.58.58,0,1,1,1.14.2.58.58,0,1,1-1.14-.2Zm-.2,3.51A.69.69,0,0,1,60.21,10a.69.69,0,0,1,.23-1.34Zm-.29,6.75a.41.41,0,1,1,.32.54A.45.45,0,0,1,60.15,15.4Zm.69-1.46a.48.48,0,1,1,.48-.4A.45.45,0,0,1,60.84,13.94Zm.37-2.1a.48.48,0,1,1,.48-.4A.45.45,0,0,1,61.21,11.84Zm.43-2a.48.48,0,1,1,.48-.4A.45.45,0,0,1,61.64,9.8Zm.44-2.08a.48.48,0,0,1,.16-.94.48.48,0,0,1-.16.94Zm.44-2a.45.45,0,0,1-.32-.54.41.41,0,1,1,.32.54ZM61.45,1A.63.63,0,0,1,62.13.4a.63.63,0,0,1,.45.77.63.63,0,0,1-.68.57A.63.63,0,0,1,61.45,1Zm.24,1.48a.63.63,0,0,1,.45.77A.58.58,0,1,1,61,3,.63.63,0,0,1,61.69,2.44ZM59.84,1a.68.68,0,0,1,.74-.62.68.68,0,0,1,.49.83.68.68,0,0,1-.74.62A.68.68,0,0,1,59.84,1ZM59.4,3a.63.63,0,1,1,1.23.21A.63.63,0,1,1,59.4,3ZM59,5.13a.63.63,0,1,1,1.23.21A.63.63,0,1,1,59,5.13Zm-.44,2a.63.63,0,1,1,1.23.21.63.63,0,1,1-1.23-.21Zm-.44,2.08a.63.63,0,1,1,.49.83A.68.68,0,0,1,58.15,9.22Zm-.43,2a.63.63,0,1,1,.49.83A.68.68,0,0,1,57.71,11.26Zm-.37,2.1a.63.63,0,1,1,.49.83A.68.68,0,0,1,57.34,13.36Zm-.37,2a.63.63,0,1,1,.49.83A.68.68,0,0,1,57,15.37Zm-.48,2.1a.63.63,0,1,1,.49.83A.68.68,0,0,1,56.49,17.47Zm.37,4.34a.63.63,0,1,1-.49-.83A.68.68,0,0,1,56.86,21.81Zm.37-2.13a.63.63,0,1,1-.49-.83A.68.68,0,0,1,57.23,19.68Zm1.15,2.12a.58.58,0,1,1-.45-.77A.63.63,0,0,1,58.38,21.8Zm.37-2.13a.58.58,0,1,1-.45-.77A.63.63,0,0,1,58.75,19.67Zm.86,2.1a.41.41,0,1,1-.32-.54A.45.45,0,0,1,59.61,21.77ZM60,19.64a.41.41,0,1,1-.32-.54A.45.45,0,0,1,60,19.64Zm-.31-2.14A.41.41,0,1,1,60,18,.45.45,0,0,1,59.66,17.51Zm.61,4.5a.32.32,0,1,1,.32-.26A.29.29,0,0,1,60.27,22Zm.37-2.13a.32.32,0,1,1,.32-.26A.29.29,0,0,1,60.64,19.88Zm.49-2a.32.32,0,1,1,.32-.26A.29.29,0,0,1,61.13,17.88Zm.48-2.1a.32.32,0,1,1,.32-.26A.29.29,0,0,1,61.61,15.78Zm.37-2a.32.32,0,1,1,.32-.26A.29.29,0,0,1,62,13.78Zm.37-2.1a.32.32,0,1,1,.32-.26A.29.29,0,0,1,62.35,11.68Zm.43-2a.32.32,0,1,1,.32-.26A.29.29,0,0,1,62.79,9.63Zm.44-2.08a.32.32,0,1,1,.32-.26A.29.29,0,0,1,63.23,7.56Zm.44-2A.32.32,0,1,1,64,5.29.29.29,0,0,1,63.67,5.55ZM64,3.42a.29.29,0,0,1-.21-.35.27.27,0,1,1,.52.09A.29.29,0,0,1,64,3.42Zm.35-2A.29.29,0,0,1,64.18,1a.27.27,0,1,1,.52.09A.29.29,0,0,1,64.39,1.37ZM82.3,16.22c-.45,2-1.63,3.26-2.67,3.11-1.78-.26-1.49-2-1-4s1.62-3.17,2.67-3.11C82.67,12.35,82.75,14.27,82.3,16.22Zm17.29,0c-.4,1.75-1.43,2.92-2.32,2.8-1.53-.22-1.27-1.78-.86-3.53s1.42-2.84,2.32-2.8C99.94,12.73,100,14.45,99.6,16.2Z"/>
</svg>